<?xml version="1.0" encoding="UTF-8"?>
<!DOCTYPE svg PUBLIC "-//W3C//DTD SVG 1.1//EN" "http://www.w3.org/Graphics/SVG/1.1/DTD/svg11.dtd">
<!-- Creator: CorelDRAW 2020 (64-Bit) -->
<svg xmlns="http://www.w3.org/2000/svg" xml:space="preserve" width="210mm" height="297mm" version="1.1" style="shape-rendering:geometricPrecision; text-rendering:geometricPrecision; image-rendering:optimizeQuality; fill-rule:evenodd; clip-rule:evenodd"
viewBox="0 0 21000 29700"
 xmlns:xlink="http://www.w3.org/1999/xlink"
 xmlns:xodm="http://www.corel.com/coreldraw/odm/2003">
 <defs>
  <style type="text/css">
   <![CDATA[
    .str2 {stroke:#FEFEFE;stroke-width:100;stroke-miterlimit:22.9256}
    .str0 {stroke:#2B2A29;stroke-width:20;stroke-miterlimit:22.9256}
    .str1 {stroke:#FEFEFE;stroke-width:50;stroke-linecap:round;stroke-miterlimit:22.9256}
    .fil3 {fill:none}
    .fil1 {fill:#FEFEFE}
    .fil0 {fill:#2B2A29}
    .fil2 {fill:#FEFEFE;fill-rule:nonzero}
    .fil4 {fill:#FEFEFE;fill-rule:nonzero}
   ]]>
  </style>
 </defs>
 <g id="Plan_x0020_1">
  <metadata id="CorelCorpID_0Corel-Layer"/>
  <g id="_1961699941616">
   <polygon class="fil0 str0" points="3662.34,7573.01 17395.92,7573.01 17395.92,22536.25 3662.34,22536.25 "/>
   <path class="fil1" d="M14211.03 9611.53l-510.8 562.41 -1529.83 0 0 0.3c-849.68,12.86 -1534.49,705.48 -1534.49,1558.19 0,852.71 684.81,1545.36 1534.49,1558.22l901.86 0 0 0.59c1160.33,12.9 2096.88,957.27 2096.88,2120.61 0,1046.01 -757.25,1914.85 -1753.47,2088.86l0 -574.08c683.44,-165.14 1191.08,-780.61 1191.08,-1514.78 0,-852.71 -684.8,-1545.36 -1534.49,-1558.22l-901.86 0 0 -0.59c-1160.32,-12.89 -2096.88,-957.26 -2096.88,-2120.61 0,-1163.32 936.56,-2107.72 2096.88,-2120.6l0 -0.3 2040.63 0z"/>
   <path class="fil1" d="M6446.87 9649.87c1926.43,268.29 3409.42,1921.96 3409.42,3922.25 0,2187.38 -1773.23,3960.61 -3960.6,3960.61l0 -326.12 0 -223.97 0 -2685.02 551.18 573.69 0 2066.75c1621.43,-263.54 2859.33,-1670.04 2859.33,-3365.94 0,-1695.88 -1237.9,-3102.4 -2859.33,-3365.93l0 -556.32z"/>
   <path class="fil2" d="M6760.86 20498.18l179.85 -488.26 58.27 0 179.84 488.26 -73.84 0 -135.2 -393.93 -135.08 393.93 -73.84 0zm82.88 -107.17l0 -65.1 256.55 0 0 65.1 -256.55 0zm593.22 107.17l0 -488.26 68.46 0 0 488.26 -68.46 0zm34.23 0l0 -65.1 279.1 0 0 65.1 -279.1 0zm708.28 5.04c-54.37,0 -96.39,-15.81 -126.27,-47.56 -29.88,-31.64 -44.77,-76.34 -44.77,-134.1l0 -311.64 68.35 0 0 313.93c0,35.65 9.04,63.15 26.9,82.64 17.86,19.48 43.16,29.22 75.79,29.22 32.85,0 58.27,-9.74 76.24,-29.22 18.09,-19.49 27.02,-46.99 27.02,-82.64l0 -313.93 68.46 0 0 311.64c0,57.76 -15,102.46 -44.99,134.1 -29.88,31.75 -72.23,47.56 -126.73,47.56zm1058.68 -194.38l0 -65.22 155.93 0c22.43,0 40.29,-7.68 53.8,-23.15 13.62,-15.48 20.38,-35.65 20.38,-60.75l0 0c0,-25.56 -6.76,-45.96 -20.38,-61.43 -13.51,-15.47 -31.37,-23.15 -53.8,-23.15l-155.93 0 0 -65.22 153.64 0c29.53,0 55.17,6.19 77.16,18.68 21.86,12.38 38.92,29.8 51.06,52.15 12.24,22.47 18.3,48.71 18.3,78.97l0 0c0,30.03 -6.06,56.16 -18.3,78.51 -12.14,22.47 -29.2,39.77 -51.06,52.15 -21.99,12.27 -47.63,18.46 -77.16,18.46l-153.64 0zm-35.26 189.34l0 -488.26 68.46 0 0 488.26 -68.46 0zm720.76 0l-159.01 -488.26 74.42 0 117.11 382.81 116.99 -382.81 74.53 0 -159.01 488.26 -65.03 0zm638.44 5.04c-33.99,0 -63.76,-7.56 -89.18,-22.69 -25.52,-15.13 -45.33,-36.33 -59.41,-63.61 -14.08,-27.28 -21.17,-59.26 -21.17,-95.71l0 -133.98c0,-36.68 7.09,-68.65 21.17,-96.05 14.08,-27.28 33.89,-48.48 59.41,-63.61 25.42,-15.13 55.19,-22.69 89.18,-22.69 28.17,0 53.92,6.07 77.28,18.11 23.35,12.15 42.93,28.99 58.72,50.77 15.8,21.66 26.45,47.11 32.05,76.22l0 0 -70.16 0 0 0c-4.24,-15.7 -11.34,-29.34 -21.3,-41.15 -9.95,-11.8 -21.63,-20.86 -35.02,-27.39 -13.4,-6.42 -27.25,-9.74 -41.57,-9.74 -29.99,0 -54.03,10.66 -72.23,31.75 -18.32,21.2 -27.37,49.05 -27.37,83.78l0 133.98c0,34.73 9.05,62.58 27.37,83.67 18.2,20.98 42.24,31.52 72.23,31.52 21.18,0 41.22,-6.76 59.99,-20.17 18.78,-13.41 31.49,-32.78 37.9,-58.11l0 0 70.16 0 0 0c-5.6,29.11 -16.37,54.56 -32.28,76.22 -15.79,21.78 -35.36,38.62 -58.61,50.77 -23.24,12.04 -48.99,18.11 -77.16,18.11zm1210.25 -170.89l143.21 -322.41 64 0 0 488.26 -66.74 0 0 -365.62 3.43 21.43 -120.08 276.34 -47.63 0 -120.08 -269.58 3.31 -28.19 0 365.62 -66.74 0 0 -488.26 64.11 0 143.21 322.41zm512.4 165.85l0 -488.26 68.46 0 0 488.26 -68.46 0zm33.2 0l0 -65.1 280.13 0 0 65.1 -280.13 0zm0 -209.86l0 -65.1 243.15 0 0 65.1 -243.15 0zm0 -213.18l0 -65.22 280.13 0 0 65.22 -280.13 0zm632.61 423.04l0 -448.26 68.34 0 0 448.26 -68.34 0zm-137.94 -423.04l0 -65.22 344.12 0 0 65.22 -344.12 0zm535.29 423.04l179.84 -488.26 58.27 0 179.85 488.26 -73.84 0 -135.2 -393.93 -135.08 393.93 -73.84 0zm82.88 -107.17l0 -65.1 256.54 0 0 65.1 -256.54 0zm593.22 107.17l0 -488.26 68.46 0 0 488.26 -68.46 0zm34.23 0l0 -65.1 279.1 0 0 65.1 -279.1 0z"/>
   <path class="fil1 str0" d="M8709.13 20204.91c35.51,0 64.3,28.79 64.3,64.3 0,35.5 -28.79,64.3 -64.3,64.3 -35.5,0 -64.29,-28.8 -64.29,-64.3 0,-35.51 28.79,-64.3 64.29,-64.3z"/>
   <path class="fil1 str0" d="M11179.13 20269.21c0,35.5 -28.8,64.3 -64.3,64.3 -35.51,0 -64.3,-28.8 -64.3,-64.3 0,-84.58 128.6,-84.58 128.6,0z"/>
   <line class="fil3 str1" x1="15169.14" y1="20269.21" x2="14502.34" y2= "20269.21" />
   <path class="fil4" d="M5978.48 19242.38l0 -80.87 198.38 0c81.08,0 141.79,-18.94 182.33,-56.8 40.33,-38.07 60.5,-95.28 60.5,-171.63l0 -258.05c0,-76.35 -20.17,-133.56 -60.5,-171.42 -40.54,-38.07 -101.25,-57.01 -182.33,-57.01l-198.38 0 0 -80.87 194.68 0c111.74,0 195.29,26.13 250.44,78.4 55.36,52.27 82.93,130.88 82.93,235.84l0 248.38c0,69.76 -12.35,128 -37.04,174.51 -24.69,46.3 -61.74,81.28 -111.33,104.54 -49.39,23.25 -111.33,34.98 -185.62,34.98l-194.06 0zm-83.34 0l0 -876.65 86.84 0 0 876.65 -86.84 0zm798.25 0l0 -876.65 86.84 0 0 876.65 -86.84 0zm59.68 0l0 -80.87 503.56 0 0 80.87 -503.56 0zm0 -394.9l0 -80.88 437.09 0 0 80.88 -437.09 0zm0 -400.88l0 -80.87 503.56 0 0 80.87 -503.56 0zm678.27 795.78l0 -876.65 86.84 0 0 876.65 -86.84 0zm61.53 0l0 -80.87 501.71 0 0 80.87 -501.71 0zm755.44 0l0 -841.05 86.85 0 0 841.05 -86.85 0zm-265.87 -795.78l0 -80.87 618.59 0 0 80.87 -618.59 0zm600.49 795.78l323.29 -876.65 104.74 0 323.29 876.65 -96.51 0 -279.25 -785.49 -279.05 785.49 -96.51 0zm148.99 -212.78l0 -80.88 461.16 0 0 80.88 -461.16 0zm1329.99 221.83c-42.6,0 -82.72,-4.11 -120.38,-12.14 -37.46,-8.02 -72.65,-19.96 -105.57,-36.01 -32.72,-16.26 -63.38,-36.22 -91.78,-60.29l0 0 52.47 -68.74 0 0c36.84,32.11 77.38,56.18 121.42,72.23 44.04,16.05 91.98,24.08 143.84,24.08 75.53,0 133.76,-14.82 174.72,-44.45 40.95,-29.84 61.53,-71.61 61.53,-125.53l0 -0.62c0,-36.42 -10.09,-64.61 -30.05,-84.37 -20.17,-19.75 -46.51,-34.57 -78.82,-44.65 -32.3,-10.09 -67.29,-18.73 -105.15,-25.93 -34.99,-6.8 -69.97,-14.2 -105.16,-22.64 -35.19,-8.23 -67.29,-19.76 -96.51,-34.78 -29.23,-15.23 -52.48,-36.42 -70.18,-64 -17.69,-27.57 -26.54,-64 -26.54,-109.48l0 -0.61c0,-81.5 27.16,-144.67 81.28,-189.53 54.33,-44.87 130.88,-67.3 229.87,-67.3 46.5,0 92.19,7.62 137.05,22.64 44.86,15.02 88.9,38.07 132.32,69.15l0 0 -51.24 68.11 0 0c-37.86,-26.55 -74.7,-46.3 -110.92,-59.47 -36.22,-12.97 -72.02,-19.55 -107.21,-19.55 -71.62,0 -127.18,15.02 -166.49,44.86 -39.3,30.04 -59.06,72.44 -59.06,127.59l0 0.61c0,36.02 11.12,63.59 33.34,82.53 22.43,18.93 51.24,33.13 86.84,42.8 35.6,9.67 73.26,18.52 113.19,26.55 33.74,6.79 67.08,14.81 100.21,24.07 33.34,9.26 63.39,22.02 90.14,38.07 26.96,16.05 48.56,37.87 64.62,65.44 16.05,27.37 24.07,62.97 24.07,106.39l0 1.24c0,80.67 -28.19,143.23 -84.37,187.47 -56.39,44.25 -135.41,66.26 -237.48,66.26zm762.65 0c-65.65,0 -121.21,-12.75 -167.1,-38.07 -45.89,-25.31 -80.87,-61.94 -104.95,-110.3 -24.08,-48.15 -36.22,-106.39 -36.22,-174.71l0 -248.38c0,-68.74 12.14,-127.18 36.22,-175.13 24.08,-48.15 59.06,-84.78 104.95,-110.1 45.89,-25.31 101.45,-38.07 167.1,-38.07 65.44,0 121,12.76 166.89,38.07 45.89,25.32 80.88,61.95 104.95,110.1 24.08,47.95 36.22,106.39 36.22,175.13l0 248.38c0,68.32 -12.14,126.56 -36.22,174.71 -24.07,48.36 -59.06,84.99 -104.95,110.3 -45.89,25.32 -101.45,38.07 -166.89,38.07zm0 -80.87c70.17,0 124.71,-20.78 163.19,-62.35 38.69,-41.57 58.03,-100.22 58.03,-175.74l0 -256.83c0,-75.52 -19.34,-134.17 -58.03,-175.74 -38.48,-41.57 -93.02,-62.35 -163.19,-62.35 -70.38,0 -124.91,20.78 -163.4,62.35 -38.68,41.57 -58.03,100.22 -58.03,175.74l0 256.83c0,75.52 19.35,134.17 58.03,175.74 38.49,41.57 93.02,62.35 163.4,62.35zm494.71 71.82l0 -876.65 86.84 0 0 876.65 -86.84 0zm61.53 0l0 -80.87 501.71 0 0 80.87 -501.71 0zm917.6 9.05c-102.89,0 -179.86,-26.54 -230.89,-79.84 -51.04,-53.3 -76.56,-133.35 -76.56,-240.36l0 -565.5 86.85 0 0 569.82c0,76.76 18.11,134.38 54.74,172.66 36.63,38.48 91.98,57.62 165.86,57.62 74.29,0 129.85,-19.14 166.69,-57.62 36.83,-38.28 55.15,-95.9 55.15,-172.66l0 -569.82 86.84 0 0 565.5c0,107.01 -25.72,187.06 -76.96,240.36 -51.25,53.3 -128.42,79.84 -231.72,79.84zm658.92 -9.05l0 -841.05 86.85 0 0 841.05 -86.85 0zm-265.87 -795.78l0 -80.87 618.59 0 0 80.87 -618.59 0zm844.13 -80.87l0 876.65 -86.84 0 0 -876.65 86.84 0zm525.17 885.7c-65.65,0 -121.21,-12.75 -167.1,-38.07 -45.89,-25.31 -80.87,-61.94 -104.95,-110.3 -24.08,-48.15 -36.22,-106.39 -36.22,-174.71l0 -248.38c0,-68.74 12.14,-127.18 36.22,-175.13 24.08,-48.15 59.06,-84.78 104.95,-110.1 45.89,-25.31 101.45,-38.07 167.1,-38.07 65.44,0 121,12.76 166.89,38.07 45.89,25.32 80.88,61.95 104.95,110.1 24.08,47.95 36.22,106.39 36.22,175.13l0 248.38c0,68.32 -12.14,126.56 -36.22,174.71 -24.07,48.36 -59.06,84.99 -104.95,110.3 -45.89,25.32 -101.45,38.07 -166.89,38.07zm0 -80.87c70.17,0 124.71,-20.78 163.19,-62.35 38.69,-41.57 58.03,-100.22 58.03,-175.74l0 -256.83c0,-75.52 -19.34,-134.17 -58.03,-175.74 -38.48,-41.57 -93.02,-62.35 -163.19,-62.35 -70.38,0 -124.91,20.78 -163.4,62.35 -38.68,41.57 -58.03,100.22 -58.03,175.74l0 256.83c0,75.52 19.35,134.17 58.03,175.74 38.49,41.57 93.02,62.35 163.4,62.35zm494.71 71.2l0 -876.03 87.46 0 508.91 789.81 -35.6 -24.08 0 -765.73 86.84 0 0 876.03 -88.69 0 -519 -795.77 46.92 34.36 0 761.41 -86.84 0z"/>
   <polygon class="fil3 str2" points="4664.69,8575.36 16393.57,8575.36 16393.57,21533.9 4664.69,21533.9 "/>
   <line class="fil3 str1" x1="6562.49" y1="20269.21" x2="5895.69" y2= "20269.21" />
  </g>
 </g>
</svg>
