<svg xmlns="http://www.w3.org/2000/svg" xmlns:xlink="http://www.w3.org/1999/xlink"
    xmlns:a="http://ns.adobe.com/AdobeSVGViewerExtensions/3.0/" version="1.1" x="0px" y="0px"
    width="328.2px" height="329px" viewBox="0 0 328.2 329"
    style="enable-background:new 0 0 328.2 329;" xml:space="preserve"><script xmlns=""/>
    <style type="text/css">
    .st0{fill:#000;}
    </style>
    <defs>
    </defs>
    <path class="st0" d="M46.1,329C20.6,329,0,308.3,0,282.9c0-25.5,20.6-46.1,46.1-46.1s46.1,20.6,46.1,46.1 C92.2,308.3,71.5,329,46.1,329z M154.3,327.2c0-84.9-69.1-153.9-153.9-153.9v-64.3c120.4,0,218.3,97.9,218.3,218.3H154.3z M263.9,327.2c0-70.3-27.3-136.3-76.9-185.9C137.4,91.7,71.3,64.3,1.1,64.3V0c87.5,0,169.6,34,231.4,95.8 c61.8,61.8,95.8,143.9,95.8,231.4H263.9z"/>
    <script xmlns=""/></svg>